# xmcd
#
# Track frame offsets:
#	150
#	9845
#	28567
#	41537
#	47762
#	57477
#	69377
#	78712
#	89220
#	99542
#	114407
#	126710
#	136560
#	153707
#	166220
#	175892
#
# Disc length: 2462 seconds
#
# Revision: 1
# Processed by: cddbd v1.4PL0 Copyright (c) Steve Scherf et al.
# Submitted via: audiograbber 1.81.02
#
DISCID=d7099c10
DTITLE=Various Artist - Down Home Country Classics - America's Masters - Vol 1
DTITLE=0
DYEAR=1900
DGENRE=
TTITLE0=Rose Maddox - Single Girl
TTITLE1=Strange Creek Singers - No Never No
TTITLE2=J.E. Mainer - Run Mountain
TTITLE3=Snuffy Jenkins - Spanish Fandango
TTITLE4=The Armstrong Twins - Eight Thirty Blues
TTITLE5=Del McCoury - Hey, Hey Bartender
TTITLE6=Sam McGee - Sam McGee Stomp
TTITLE7=Louisiana Honey Drippers - Old Dan Tucker
TTITLE8=Toni Brown - You Turned Your Back
TTITLE9=Suzy and Eric Thompson - Carroll County Blues
TTITLE10=Maddox Brothers and Rose - George's Playhouse Boogie
TTITLE11=Kenny Baker - John Barleycorn
TTITLE12=Bill Neely - Black Land Farmer
TTITLE13=Any Old Time String Band - Turkey Buzzard - Chinquapin Hunting
TTITLE14=The Carter Family - Hello Stranger
TTITLE15=Hodges Brothers - Bogue Chito Fling Daing
EXTD=
EXTT0=
EXTT1=
EXTT2=
EXTT3=
EXTT4=
EXTT5=
EXTT6=
EXTT7=
EXTT8=
EXTT9=
EXTT10=
EXTT11=
EXTT12=
EXTT13=
EXTT14=
EXTT15=
PLAYORDER=
